<?xml version="1.0" encoding="UTF-8"?>
<!DOCTYPE svg PUBLIC "-//W3C//DTD SVG 1.1//EN" "http://www.w3.org/Graphics/SVG/1.1/DTD/svg11.dtd">
<svg xmlns="http://www.w3.org/2000/svg" version="1.1" width="500px" height="500px" style="shape-rendering:geometricPrecision; text-rendering:geometricPrecision; image-rendering:optimizeQuality; fill-rule:evenodd; clip-rule:evenodd" xmlns:xlink="http://www.w3.org/1999/xlink">
<g><path style="opacity:1" fill="#e55101" d="M 249.5,51.5 C 249.5,61.8333 249.5,72.1667 249.5,82.5C 249.5,99.8333 249.5,117.167 249.5,134.5C 217.833,134.5 186.167,134.5 154.5,134.5C 154.19,137.713 154.523,140.713 155.5,143.5C 157.556,182.168 159.722,220.835 162,259.5C 191.093,260.495 220.26,260.829 249.5,260.5C 249.5,280.833 249.5,301.167 249.5,321.5C 235.486,316.773 221.486,311.94 207.5,307C 206.607,300.903 205.94,294.736 205.5,288.5C 205.5,285.833 205.5,283.167 205.5,280.5C 191.323,280.171 177.323,280.504 163.5,281.5C 164.714,298.825 165.88,316.158 167,333.5C 167.202,335.256 167.702,336.922 168.5,338.5C 195.591,347.308 222.591,356.308 249.5,365.5C 249.5,381.833 249.5,398.167 249.5,414.5C 249.5,425.5 249.5,436.5 249.5,447.5C 201.436,434.317 153.436,420.817 105.5,407C 104.333,406.5 103.5,405.667 103,404.5C 92.7991,286.918 82.2991,169.418 71.5,52C 130.832,51.5 190.166,51.3333 249.5,51.5 Z"/></g>
<g><path style="opacity:0.986" fill="#0277bd" d="M 249.5,51.5 C 308.834,51.3333 368.168,51.5 427.5,52C 416.644,169.413 406.144,286.913 396,404.5C 395.5,405.667 394.667,406.5 393.5,407C 345.564,420.817 297.564,434.317 249.5,447.5C 249.5,436.5 249.5,425.5 249.5,414.5C 288.233,403.925 326.9,392.925 365.5,381.5C 374.857,281.858 383.857,182.191 392.5,82.5C 344.833,82.5 297.167,82.5 249.5,82.5C 249.5,72.1667 249.5,61.8333 249.5,51.5 Z"/></g>
<g><path style="opacity:1" fill="#059be4" d="M 249.5,82.5 C 297.167,82.5 344.833,82.5 392.5,82.5C 383.857,182.191 374.857,281.858 365.5,381.5C 326.9,392.925 288.233,403.925 249.5,414.5C 249.5,398.167 249.5,381.833 249.5,365.5C 249.5,365.167 249.5,364.833 249.5,364.5C 276.783,355.628 304.116,346.961 331.5,338.5C 335.558,273.505 339.558,208.505 343.5,143.5C 344.477,140.713 344.81,137.713 344.5,134.5C 312.833,134.5 281.167,134.5 249.5,134.5C 249.5,117.167 249.5,99.8333 249.5,82.5 Z"/></g>
<g><path style="opacity:1" fill="#ea9f76" d="M 249.5,134.5 C 249.5,134.833 249.5,135.167 249.5,135.5C 218.167,135.5 186.833,135.5 155.5,135.5C 155.5,138.167 155.5,140.833 155.5,143.5C 154.523,140.713 154.19,137.713 154.5,134.5C 186.167,134.5 217.833,134.5 249.5,134.5 Z"/></g>
<g><path style="opacity:1" fill="#80ccf1" d="M 249.5,135.5 C 249.5,135.167 249.5,134.833 249.5,134.5C 281.167,134.5 312.833,134.5 344.5,134.5C 344.81,137.713 344.477,140.713 343.5,143.5C 343.5,140.833 343.5,138.167 343.5,135.5C 312.167,135.5 280.833,135.5 249.5,135.5 Z"/></g>
<g><path style="opacity:1" fill="#eeecec" d="M 249.5,135.5 C 249.5,149.167 249.5,162.833 249.5,176.5C 232.5,176.5 215.5,176.5 198.5,176.5C 199.832,190.474 200.832,204.474 201.5,218.5C 217.5,218.5 233.5,218.5 249.5,218.5C 249.5,232.167 249.5,245.833 249.5,259.5C 249.5,259.833 249.5,260.167 249.5,260.5C 220.26,260.829 191.093,260.495 162,259.5C 159.722,220.835 157.556,182.168 155.5,143.5C 155.5,140.833 155.5,138.167 155.5,135.5C 186.833,135.5 218.167,135.5 249.5,135.5 Z"/></g>
<g><path style="opacity:1" fill="#fefefe" d="M 249.5,135.5 C 280.833,135.5 312.167,135.5 343.5,135.5C 343.5,138.167 343.5,140.833 343.5,143.5C 339.558,208.505 335.558,273.505 331.5,338.5C 304.116,346.961 276.783,355.628 249.5,364.5C 249.5,350.167 249.5,335.833 249.5,321.5C 263.617,316.405 277.784,311.405 292,306.5C 292.944,293.836 293.778,281.169 294.5,268.5C 295.477,265.713 295.81,262.713 295.5,259.5C 280.167,259.5 264.833,259.5 249.5,259.5C 249.5,245.833 249.5,232.167 249.5,218.5C 265.5,218.5 281.5,218.5 297.5,218.5C 298.296,204.483 299.296,190.483 300.5,176.5C 283.5,176.5 266.5,176.5 249.5,176.5C 249.5,162.833 249.5,149.167 249.5,135.5 Z"/></g>
<g><path style="opacity:1" fill="#e65202" d="M 249.5,176.5 C 249.5,190.5 249.5,204.5 249.5,218.5C 233.5,218.5 217.5,218.5 201.5,218.5C 200.832,204.474 199.832,190.474 198.5,176.5C 215.5,176.5 232.5,176.5 249.5,176.5 Z"/></g>
<g><path style="opacity:1" fill="#079be5" d="M 249.5,176.5 C 266.5,176.5 283.5,176.5 300.5,176.5C 299.296,190.483 298.296,204.483 297.5,218.5C 281.5,218.5 265.5,218.5 249.5,218.5C 249.5,204.5 249.5,190.5 249.5,176.5 Z"/></g>
<g><path style="opacity:1" fill="#82cdf2" d="M 249.5,260.5 C 249.5,260.167 249.5,259.833 249.5,259.5C 264.833,259.5 280.167,259.5 295.5,259.5C 295.81,262.713 295.477,265.713 294.5,268.5C 294.5,265.833 294.5,263.167 294.5,260.5C 279.5,260.5 264.5,260.5 249.5,260.5 Z"/></g>
<g><path style="opacity:1" fill="#049be5" d="M 249.5,260.5 C 264.5,260.5 279.5,260.5 294.5,260.5C 294.5,263.167 294.5,265.833 294.5,268.5C 293.778,281.169 292.944,293.836 292,306.5C 277.784,311.405 263.617,316.405 249.5,321.5C 249.5,301.167 249.5,280.833 249.5,260.5 Z"/></g>
<g><path style="opacity:1" fill="#ecc3ad" d="M 163.5,281.5 C 177.323,280.504 191.323,280.171 205.5,280.5C 205.5,283.167 205.5,285.833 205.5,288.5C 204.532,286.393 204.198,284.059 204.5,281.5C 190.833,281.5 177.167,281.5 163.5,281.5 Z"/></g>
<g><path style="opacity:1" fill="#eeedec" d="M 163.5,281.5 C 177.167,281.5 190.833,281.5 204.5,281.5C 204.198,284.059 204.532,286.393 205.5,288.5C 205.94,294.736 206.607,300.903 207.5,307C 221.486,311.94 235.486,316.773 249.5,321.5C 249.5,335.833 249.5,350.167 249.5,364.5C 249.5,364.833 249.5,365.167 249.5,365.5C 222.591,356.308 195.591,347.308 168.5,338.5C 167.702,336.922 167.202,335.256 167,333.5C 165.88,316.158 164.714,298.825 163.5,281.5 Z"/></g>
</svg>
